<svg width="250" height="40" viewBox="0 0 250 40" fill="none" xmlns="http://www.w3.org/2000/svg">
<rect width="250" height="40" fill="#83CAFE"/>
<rect width="250" height="40" fill="#ECECEC"/>
<path d="M106.68 28V11.488H114.48V13.072H108.48V18.856H113.688V20.44H108.48V26.416H114.48V28H106.68ZM119.367 28.192C118.247 28.192 117.439 27.936 116.943 27.424C116.447 26.912 116.199 25.984 116.199 24.64C116.199 23.712 116.287 22.992 116.463 22.48C116.655 21.952 116.967 21.576 117.399 21.352C117.847 21.128 118.471 21.016 119.271 21.016C119.735 21.016 120.791 21.056 122.439 21.136V20.272C122.439 19.264 122.367 18.544 122.223 18.112C122.095 17.664 121.847 17.376 121.479 17.248C121.127 17.104 120.535 17.032 119.703 17.032C119.335 17.032 118.855 17.064 118.263 17.128C117.687 17.176 117.199 17.232 116.799 17.296V15.904C117.839 15.68 118.967 15.568 120.183 15.568C121.303 15.568 122.135 15.704 122.679 15.976C123.239 16.248 123.623 16.712 123.831 17.368C124.039 18.024 124.143 18.984 124.143 20.248V28H122.631L122.535 26.32H122.415C122.175 27.072 121.783 27.576 121.239 27.832C120.711 28.072 120.087 28.192 119.367 28.192ZM119.919 26.728C120.479 26.728 120.935 26.664 121.287 26.536C121.639 26.392 121.903 26.096 122.079 25.648C122.319 25.008 122.439 24.152 122.439 23.08V22.288H119.703C119.191 22.288 118.807 22.344 118.551 22.456C118.311 22.552 118.135 22.76 118.023 23.08C117.927 23.384 117.879 23.864 117.879 24.52C117.879 25.144 117.927 25.608 118.023 25.912C118.135 26.216 118.335 26.432 118.623 26.56C118.911 26.672 119.343 26.728 119.919 26.728ZM130.066 28.192C129.522 28.192 128.938 28.16 128.314 28.096C127.69 28.048 127.178 27.984 126.778 27.904V26.488C127.802 26.664 128.858 26.752 129.946 26.752C130.554 26.752 131.01 26.672 131.314 26.512C131.618 26.352 131.818 26.128 131.914 25.84C132.01 25.552 132.058 25.16 132.058 24.664C132.058 24.072 132.026 23.656 131.962 23.416C131.898 23.16 131.786 22.992 131.626 22.912C131.482 22.816 131.226 22.744 130.858 22.696L128.458 22.336C127.69 22.224 127.17 21.936 126.898 21.472C126.626 20.992 126.49 20.216 126.49 19.144C126.49 18.184 126.642 17.448 126.946 16.936C127.25 16.408 127.666 16.048 128.194 15.856C128.738 15.664 129.434 15.568 130.282 15.568C130.778 15.568 131.306 15.6 131.866 15.664C132.426 15.728 132.874 15.808 133.21 15.904V17.296C132.842 17.216 132.386 17.152 131.842 17.104C131.314 17.04 130.794 17.008 130.282 17.008C129.53 17.008 128.986 17.144 128.65 17.416C128.314 17.688 128.146 18.224 128.146 19.024C128.146 19.552 128.178 19.944 128.242 20.2C128.306 20.44 128.41 20.608 128.554 20.704C128.714 20.8 128.97 20.872 129.322 20.92L131.65 21.232C132.162 21.296 132.562 21.432 132.85 21.64C133.154 21.832 133.378 22.16 133.522 22.624C133.666 23.088 133.738 23.752 133.738 24.616C133.738 25.96 133.45 26.896 132.874 27.424C132.298 27.936 131.362 28.192 130.066 28.192ZM139.569 32.776C138.353 32.776 137.305 32.728 136.425 32.632V31.24C137.289 31.288 138.225 31.312 139.233 31.312C140.161 31.312 140.841 31.176 141.273 30.904C141.705 30.632 141.977 30.2 142.089 29.608C142.217 29.032 142.281 28.128 142.281 26.896V26.416H142.161C141.969 26.944 141.649 27.368 141.201 27.688C140.753 27.992 140.089 28.144 139.209 28.144C138.297 28.144 137.617 27.984 137.169 27.664C136.737 27.328 136.441 26.824 136.281 26.152C136.137 25.48 136.065 24.512 136.065 23.248V15.76H137.769V22.888C137.769 24.04 137.817 24.872 137.913 25.384C138.025 25.88 138.217 26.208 138.489 26.368C138.777 26.528 139.257 26.608 139.929 26.608C140.649 26.608 141.177 26.44 141.513 26.104C141.849 25.752 142.057 25.28 142.137 24.688C142.233 24.08 142.281 23.208 142.281 22.072V15.76H143.985V26.32C143.985 28.016 143.881 29.304 143.673 30.184C143.465 31.08 143.049 31.736 142.425 32.152C141.801 32.568 140.849 32.776 139.569 32.776ZM160.509 28V20.488H154.773V28H152.997V11.488H154.773V18.856H160.509V11.488H162.285V28H160.509ZM168.029 28V13.12H164.357V11.488H173.501V13.12H169.829V28H168.029ZM186.415 28V14.632H186.319L182.647 28H181.015L177.367 14.632H177.271V28H175.567V11.488H178.159L181.807 24.904H181.951L185.623 11.488H188.167V28H186.415ZM191.528 28V11.488H193.328V26.368H198.656V28H191.528ZM210.462 30.688V30.76H208.542L207.078 28.072C206.47 28.152 205.83 28.192 205.158 28.192C203.59 28.192 202.47 27.976 201.798 27.544C201.126 27.112 200.694 26.352 200.502 25.264C200.31 24.16 200.214 22.32 200.214 19.744C200.214 17.168 200.31 15.336 200.502 14.248C200.694 13.144 201.126 12.376 201.798 11.944C202.47 11.512 203.59 11.296 205.158 11.296C206.726 11.296 207.846 11.512 208.518 11.944C209.19 12.376 209.622 13.144 209.814 14.248C210.006 15.336 210.102 17.168 210.102 19.744C210.102 21.424 210.07 22.744 210.006 23.704C209.942 24.648 209.806 25.432 209.598 26.056C209.39 26.664 209.07 27.128 208.638 27.448L210.462 30.688ZM205.158 26.608C205.686 26.608 206.054 26.6 206.262 26.584L204.174 22.768H206.022L207.726 25.792C207.95 25.408 208.094 24.776 208.158 23.896C208.238 23.016 208.278 21.632 208.278 19.744C208.278 17.44 208.214 15.84 208.086 14.944C207.958 14.048 207.694 13.48 207.294 13.24C206.894 13 206.182 12.88 205.158 12.88C204.134 12.88 203.422 13 203.022 13.24C202.622 13.48 202.358 14.048 202.23 14.944C202.102 15.84 202.038 17.44 202.038 19.744C202.038 22.048 202.102 23.648 202.23 24.544C202.358 25.44 202.622 26.008 203.022 26.248C203.422 26.488 204.134 26.608 205.158 26.608Z" fill="black"/>
<rect x="68.5" y="8.5" width="29" height="11" fill="#90EE90" stroke="black"/>
<rect x="53.5" y="21.5" width="29" height="11" fill="#C4C4C4" stroke="black"/>
<rect x="37.5" y="8.5" width="29" height="11" fill="#FFB6C1" stroke="#333333"/>
</svg>
