<svg width="250" height="40" viewBox="0 0 250 40" fill="none" xmlns="http://www.w3.org/2000/svg">
<rect width="250" height="40" fill="#83CAFE"/>
<rect width="250" height="40" fill="#ECECEC"/>
<path d="M96.68 27V10.488H104.48V12.072H98.48V17.856H103.688V19.44H98.48V25.416H104.48V27H96.68ZM116.903 29.688V29.76H114.983L113.519 27.072C112.911 27.152 112.271 27.192 111.599 27.192C110.031 27.192 108.911 26.976 108.239 26.544C107.567 26.112 107.135 25.352 106.943 24.264C106.751 23.16 106.655 21.32 106.655 18.744C106.655 16.168 106.751 14.336 106.943 13.248C107.135 12.144 107.567 11.376 108.239 10.944C108.911 10.512 110.031 10.296 111.599 10.296C113.167 10.296 114.287 10.512 114.959 10.944C115.631 11.376 116.063 12.144 116.255 13.248C116.447 14.336 116.543 16.168 116.543 18.744C116.543 20.424 116.511 21.744 116.447 22.704C116.383 23.648 116.247 24.432 116.039 25.056C115.831 25.664 115.511 26.128 115.079 26.448L116.903 29.688ZM111.599 25.608C112.127 25.608 112.495 25.6 112.703 25.584L110.615 21.768H112.463L114.167 24.792C114.391 24.408 114.535 23.776 114.599 22.896C114.679 22.016 114.719 20.632 114.719 18.744C114.719 16.44 114.655 14.84 114.527 13.944C114.399 13.048 114.135 12.48 113.735 12.24C113.335 12 112.623 11.88 111.599 11.88C110.575 11.88 109.863 12 109.463 12.24C109.063 12.48 108.799 13.048 108.671 13.944C108.543 14.84 108.479 16.44 108.479 18.744C108.479 21.048 108.543 22.648 108.671 23.544C108.799 24.44 109.063 25.008 109.463 25.248C109.863 25.488 110.575 25.608 111.599 25.608ZM133.438 27L130.798 13.584H130.702L128.086 27H125.83L122.758 10.488H124.606L126.982 24.384H127.102L129.766 10.488H131.782L134.47 24.384H134.614L136.942 10.488H138.742L135.67 27H133.438ZM147.409 21.432H141.121C141.121 22.728 141.177 23.664 141.289 24.24C141.417 24.8 141.673 25.192 142.057 25.416C142.457 25.624 143.121 25.728 144.049 25.728C145.105 25.728 146.113 25.64 147.073 25.464V26.856C146.705 26.952 146.201 27.032 145.561 27.096C144.921 27.16 144.305 27.192 143.713 27.192C142.417 27.192 141.473 27.008 140.881 26.64C140.289 26.256 139.897 25.64 139.705 24.792C139.513 23.944 139.417 22.648 139.417 20.904C139.417 19.16 139.497 17.872 139.657 17.04C139.817 16.192 140.185 15.568 140.761 15.168C141.353 14.768 142.297 14.568 143.593 14.568C144.809 14.568 145.681 14.76 146.209 15.144C146.737 15.528 147.065 16.128 147.193 16.944C147.337 17.76 147.409 19.072 147.409 20.88V21.432ZM143.569 16.008C142.817 16.008 142.273 16.104 141.937 16.296C141.601 16.488 141.377 16.864 141.265 17.424C141.169 17.968 141.121 18.88 141.121 20.16H145.777V19.872C145.777 18.704 145.713 17.856 145.585 17.328C145.457 16.784 145.241 16.432 144.937 16.272C144.649 16.096 144.193 16.008 143.569 16.008ZM154.723 27.192C154.003 27.192 153.387 27.064 152.875 26.808C152.379 26.552 152.019 26.056 151.795 25.32H151.651L151.555 27H150.067V9.168H151.771V16.248H151.891C152.115 15.64 152.459 15.208 152.923 14.952C153.387 14.696 153.995 14.568 154.747 14.568C155.691 14.568 156.411 14.752 156.907 15.12C157.403 15.472 157.747 16.096 157.939 16.992C158.131 17.872 158.227 19.168 158.227 20.88C158.227 22.592 158.123 23.896 157.915 24.792C157.723 25.688 157.379 26.312 156.883 26.664C156.387 27.016 155.667 27.192 154.723 27.192ZM154.123 25.656C154.875 25.656 155.403 25.552 155.707 25.344C156.027 25.136 156.243 24.712 156.355 24.072C156.467 23.432 156.523 22.368 156.523 20.88C156.523 19.392 156.467 18.328 156.355 17.688C156.243 17.048 156.027 16.624 155.707 16.416C155.403 16.208 154.875 16.104 154.123 16.104C153.547 16.104 153.091 16.216 152.755 16.44C152.419 16.664 152.187 17.016 152.059 17.496C151.947 17.896 151.867 18.36 151.819 18.888C151.787 19.416 151.771 20.08 151.771 20.88C151.771 21.696 151.787 22.352 151.819 22.848C151.851 23.344 151.923 23.792 152.035 24.192C152.163 24.72 152.395 25.096 152.731 25.32C153.067 25.544 153.531 25.656 154.123 25.656ZM169.377 27.192C167.889 27.192 166.521 27.088 165.273 26.88V25.32C165.833 25.4 166.449 25.472 167.121 25.536C167.793 25.584 168.361 25.608 168.825 25.608C169.465 25.608 169.969 25.568 170.337 25.488C170.721 25.392 171.033 25.232 171.273 25.008C171.497 24.8 171.641 24.496 171.705 24.096C171.785 23.696 171.825 23.16 171.825 22.488C171.825 21.608 171.793 20.992 171.729 20.64C171.665 20.288 171.513 20.04 171.273 19.896C171.049 19.736 170.641 19.608 170.049 19.512L167.265 19.08C166.593 18.968 166.089 18.744 165.753 18.408C165.417 18.056 165.193 17.608 165.081 17.064C164.985 16.52 164.937 15.792 164.937 14.88C164.937 13.216 165.289 12.04 165.993 11.352C166.697 10.648 167.825 10.296 169.377 10.296C170.865 10.296 172.081 10.424 173.025 10.68V12.168C171.953 11.976 170.873 11.88 169.785 11.88C169.097 11.88 168.553 11.944 168.153 12.072C167.753 12.184 167.449 12.36 167.241 12.6C167.033 12.84 166.897 13.136 166.833 13.488C166.769 13.84 166.737 14.288 166.737 14.832C166.737 15.568 166.769 16.104 166.833 16.44C166.897 16.76 167.025 16.984 167.217 17.112C167.409 17.24 167.729 17.344 168.177 17.424L170.865 17.856C171.537 17.968 172.065 18.136 172.449 18.36C172.833 18.584 173.129 18.968 173.337 19.512C173.529 19.976 173.625 20.896 173.625 22.272C173.625 23.504 173.489 24.472 173.217 25.176C172.961 25.88 172.521 26.392 171.897 26.712C171.289 27.032 170.449 27.192 169.377 27.192ZM179.897 27.192C178.601 27.192 177.665 27.024 177.089 26.688C176.529 26.352 176.161 25.768 175.985 24.936C175.825 24.104 175.745 22.752 175.745 20.88C175.745 19.008 175.825 17.656 175.985 16.824C176.161 15.992 176.529 15.408 177.089 15.072C177.665 14.736 178.601 14.568 179.897 14.568C181.193 14.568 182.121 14.736 182.681 15.072C183.257 15.408 183.625 15.992 183.785 16.824C183.945 17.656 184.025 19.008 184.025 20.88C184.025 22.752 183.945 24.104 183.785 24.936C183.625 25.768 183.257 26.352 182.681 26.688C182.121 27.024 181.193 27.192 179.897 27.192ZM179.897 25.728C180.697 25.728 181.257 25.616 181.577 25.392C181.913 25.168 182.121 24.752 182.201 24.144C182.281 23.536 182.321 22.448 182.321 20.88C182.321 19.312 182.281 18.224 182.201 17.616C182.121 17.008 181.913 16.592 181.577 16.368C181.257 16.144 180.697 16.032 179.897 16.032C179.081 16.032 178.513 16.144 178.193 16.368C177.873 16.592 177.665 17.016 177.569 17.64C177.489 18.248 177.449 19.328 177.449 20.88C177.449 22.432 177.489 23.52 177.569 24.144C177.665 24.752 177.873 25.168 178.193 25.392C178.513 25.616 179.081 25.728 179.897 25.728ZM186.676 14.76H188.164L188.26 17.04H188.404C188.612 16.096 188.972 15.448 189.484 15.096C190.012 14.744 190.708 14.568 191.572 14.568V16.296C190.74 16.296 190.092 16.472 189.628 16.824C189.164 17.176 188.836 17.704 188.644 18.408C188.468 19.096 188.38 20.024 188.38 21.192V27H186.676V14.76ZM194.358 27V16.224H192.582V14.76H194.358V11.208H196.062V14.76H198.174V16.224H196.062V27H194.358Z" fill="black"/>
<rect x="52.5" y="8.5" width="29" height="11" fill="#90EE90" stroke="black"/>
<rect x="37.5" y="21.5" width="29" height="11" fill="#C4C4C4" stroke="black"/>
<rect x="21.5" y="8.5" width="29" height="11" fill="#FFB6C1" stroke="#333333"/>
</svg>
