<svg width="250" height="41" viewBox="0 0 250 41" fill="none" xmlns="http://www.w3.org/2000/svg">
<rect width="250" height="40" rx="5" fill="white"/>
<path d="M115.848 28V11.488H123.648V13.072H117.648V18.856H122.856V20.44H117.648V26.416H123.648V28H115.848ZM136.071 30.688V30.76H134.151L132.687 28.072C132.079 28.152 131.439 28.192 130.767 28.192C129.199 28.192 128.079 27.976 127.407 27.544C126.735 27.112 126.303 26.352 126.111 25.264C125.919 24.16 125.823 22.32 125.823 19.744C125.823 17.168 125.919 15.336 126.111 14.248C126.303 13.144 126.735 12.376 127.407 11.944C128.079 11.512 129.199 11.296 130.767 11.296C132.335 11.296 133.455 11.512 134.127 11.944C134.799 12.376 135.231 13.144 135.423 14.248C135.615 15.336 135.711 17.168 135.711 19.744C135.711 21.424 135.679 22.744 135.615 23.704C135.551 24.648 135.415 25.432 135.207 26.056C134.999 26.664 134.679 27.128 134.247 27.448L136.071 30.688ZM130.767 26.608C131.295 26.608 131.663 26.6 131.871 26.584L129.783 22.768H131.631L133.335 25.792C133.559 25.408 133.703 24.776 133.767 23.896C133.847 23.016 133.887 21.632 133.887 19.744C133.887 17.44 133.823 15.84 133.695 14.944C133.567 14.048 133.303 13.48 132.903 13.24C132.503 13 131.791 12.88 130.767 12.88C129.743 12.88 129.031 13 128.631 13.24C128.231 13.48 127.967 14.048 127.839 14.944C127.711 15.84 127.647 17.44 127.647 19.744C127.647 22.048 127.711 23.648 127.839 24.544C127.967 25.44 128.231 26.008 128.631 26.248C129.031 26.488 129.743 26.608 130.767 26.608ZM152.606 28L149.966 14.584H149.87L147.254 28H144.998L141.926 11.488H143.774L146.15 25.384H146.27L148.934 11.488H150.95L153.638 25.384H153.782L156.11 11.488H157.91L154.838 28H152.606ZM166.577 22.432H160.289C160.289 23.728 160.345 24.664 160.457 25.24C160.585 25.8 160.841 26.192 161.225 26.416C161.625 26.624 162.289 26.728 163.217 26.728C164.273 26.728 165.281 26.64 166.241 26.464V27.856C165.873 27.952 165.369 28.032 164.729 28.096C164.089 28.16 163.473 28.192 162.881 28.192C161.585 28.192 160.641 28.008 160.049 27.64C159.457 27.256 159.065 26.64 158.873 25.792C158.681 24.944 158.585 23.648 158.585 21.904C158.585 20.16 158.665 18.872 158.825 18.04C158.985 17.192 159.353 16.568 159.929 16.168C160.521 15.768 161.465 15.568 162.761 15.568C163.977 15.568 164.849 15.76 165.377 16.144C165.905 16.528 166.233 17.128 166.361 17.944C166.505 18.76 166.577 20.072 166.577 21.88V22.432ZM162.737 17.008C161.985 17.008 161.441 17.104 161.105 17.296C160.769 17.488 160.545 17.864 160.433 18.424C160.337 18.968 160.289 19.88 160.289 21.16H164.945V20.872C164.945 19.704 164.881 18.856 164.753 18.328C164.625 17.784 164.409 17.432 164.105 17.272C163.817 17.096 163.361 17.008 162.737 17.008ZM173.891 28.192C173.171 28.192 172.555 28.064 172.043 27.808C171.547 27.552 171.187 27.056 170.963 26.32H170.819L170.723 28H169.235V10.168H170.939V17.248H171.059C171.283 16.64 171.627 16.208 172.091 15.952C172.555 15.696 173.163 15.568 173.915 15.568C174.859 15.568 175.579 15.752 176.075 16.12C176.571 16.472 176.915 17.096 177.107 17.992C177.299 18.872 177.395 20.168 177.395 21.88C177.395 23.592 177.291 24.896 177.083 25.792C176.891 26.688 176.547 27.312 176.051 27.664C175.555 28.016 174.835 28.192 173.891 28.192ZM173.291 26.656C174.043 26.656 174.571 26.552 174.875 26.344C175.195 26.136 175.411 25.712 175.523 25.072C175.635 24.432 175.691 23.368 175.691 21.88C175.691 20.392 175.635 19.328 175.523 18.688C175.411 18.048 175.195 17.624 174.875 17.416C174.571 17.208 174.043 17.104 173.291 17.104C172.715 17.104 172.259 17.216 171.923 17.44C171.587 17.664 171.355 18.016 171.227 18.496C171.115 18.896 171.035 19.36 170.987 19.888C170.955 20.416 170.939 21.08 170.939 21.88C170.939 22.696 170.955 23.352 170.987 23.848C171.019 24.344 171.091 24.792 171.203 25.192C171.331 25.72 171.563 26.096 171.899 26.32C172.235 26.544 172.699 26.656 173.291 26.656ZM188.545 28.192C187.057 28.192 185.689 28.088 184.441 27.88V26.32C185.001 26.4 185.617 26.472 186.289 26.536C186.961 26.584 187.529 26.608 187.993 26.608C188.633 26.608 189.137 26.568 189.505 26.488C189.889 26.392 190.201 26.232 190.441 26.008C190.665 25.8 190.809 25.496 190.873 25.096C190.953 24.696 190.993 24.16 190.993 23.488C190.993 22.608 190.961 21.992 190.897 21.64C190.833 21.288 190.681 21.04 190.441 20.896C190.217 20.736 189.809 20.608 189.217 20.512L186.433 20.08C185.761 19.968 185.257 19.744 184.921 19.408C184.585 19.056 184.361 18.608 184.249 18.064C184.153 17.52 184.105 16.792 184.105 15.88C184.105 14.216 184.457 13.04 185.161 12.352C185.865 11.648 186.993 11.296 188.545 11.296C190.033 11.296 191.249 11.424 192.193 11.68V13.168C191.121 12.976 190.041 12.88 188.953 12.88C188.265 12.88 187.721 12.944 187.321 13.072C186.921 13.184 186.617 13.36 186.409 13.6C186.201 13.84 186.065 14.136 186.001 14.488C185.937 14.84 185.905 15.288 185.905 15.832C185.905 16.568 185.937 17.104 186.001 17.44C186.065 17.76 186.193 17.984 186.385 18.112C186.577 18.24 186.897 18.344 187.345 18.424L190.033 18.856C190.705 18.968 191.233 19.136 191.617 19.36C192.001 19.584 192.297 19.968 192.505 20.512C192.697 20.976 192.793 21.896 192.793 23.272C192.793 24.504 192.657 25.472 192.385 26.176C192.129 26.88 191.689 27.392 191.065 27.712C190.457 28.032 189.617 28.192 188.545 28.192ZM199.065 28.192C197.769 28.192 196.833 28.024 196.257 27.688C195.697 27.352 195.329 26.768 195.153 25.936C194.993 25.104 194.913 23.752 194.913 21.88C194.913 20.008 194.993 18.656 195.153 17.824C195.329 16.992 195.697 16.408 196.257 16.072C196.833 15.736 197.769 15.568 199.065 15.568C200.361 15.568 201.289 15.736 201.849 16.072C202.425 16.408 202.793 16.992 202.953 17.824C203.113 18.656 203.193 20.008 203.193 21.88C203.193 23.752 203.113 25.104 202.953 25.936C202.793 26.768 202.425 27.352 201.849 27.688C201.289 28.024 200.361 28.192 199.065 28.192ZM199.065 26.728C199.865 26.728 200.425 26.616 200.745 26.392C201.081 26.168 201.289 25.752 201.369 25.144C201.449 24.536 201.489 23.448 201.489 21.88C201.489 20.312 201.449 19.224 201.369 18.616C201.289 18.008 201.081 17.592 200.745 17.368C200.425 17.144 199.865 17.032 199.065 17.032C198.249 17.032 197.681 17.144 197.361 17.368C197.041 17.592 196.833 18.016 196.737 18.64C196.657 19.248 196.617 20.328 196.617 21.88C196.617 23.432 196.657 24.52 196.737 25.144C196.833 25.752 197.041 26.168 197.361 26.392C197.681 26.616 198.249 26.728 199.065 26.728ZM205.844 15.76H207.332L207.428 18.04H207.572C207.78 17.096 208.14 16.448 208.652 16.096C209.18 15.744 209.876 15.568 210.74 15.568V17.296C209.908 17.296 209.26 17.472 208.796 17.824C208.332 18.176 208.004 18.704 207.812 19.408C207.636 20.096 207.548 21.024 207.548 22.192V28H205.844V15.76ZM213.526 28V17.224H211.75V15.76H213.526V12.208H215.23V15.76H217.342V17.224H215.23V28H213.526Z" fill="black"/>
<rect x="52.5" y="8.5" width="29" height="11" fill="#90EE90" stroke="black"/>
<rect x="37.5" y="21.5" width="29" height="11" fill="#C4C4C4" stroke="black"/>
<rect x="21.5" y="8.5" width="29" height="11" fill="#FFB6C1" stroke="#333333"/>
</svg>
